<svg width="16" height="16" viewBox="0 0 16 16" fill="none" xmlns="http://www.w3.org/2000/svg">
<g clip-path="url(#clip0_22_1026)">
<path d="M15.5888 7.60758L14.6834 7.36916C14.5743 7.34006 14.4603 7.33366 14.3485 7.35042C14.2334 6.45191 13.9225 5.58962 13.4378 4.8244L14.2119 3.51183C14.3914 3.20913 14.3191 3.03233 14.228 2.9386C14.1369 2.84483 13.9601 2.76984 13.6548 2.9386L12.4547 3.62167C11.4226 2.63263 10.0873 2.02018 8.66431 1.88319L8.27054 0.412575C8.17414 0.0723255 8.00268 0 7.86606 0C7.73482 0 7.56069 0.0723255 7.46692 0.412513L7.05975 1.91794C5.7136 2.11153 4.46444 2.73 3.49436 3.68323L2.1979 2.9439C1.89253 2.76978 1.7184 2.8448 1.62467 2.9439C1.5309 3.04301 1.46127 3.21177 1.64074 3.51714L2.4899 4.94758C2.0459 5.68351 1.76288 6.50518 1.65951 7.35843C1.5476 7.34257 1.43365 7.34986 1.32466 7.37987L0.419241 7.61828C0.0736855 7.69598 0.00402832 7.87007 0.00402832 8.00135C0.00402832 8.1326 0.0763538 8.30672 0.416541 8.39779L1.30589 8.62817C1.4081 8.65573 1.51341 8.67014 1.6193 8.67102H1.63804C1.71548 9.55584 1.98221 10.4136 2.42021 11.1863L1.64071 12.4936C1.46124 12.7989 1.53357 12.9731 1.62463 13.0668C1.68776 13.1318 1.77509 13.1678 1.86572 13.1659C1.98359 13.1603 2.09805 13.1244 2.19787 13.0614L3.3256 12.4185C4.3315 13.4896 5.67768 14.1788 7.13474 14.3687L7.46689 15.5902C7.55796 15.9303 7.73475 16 7.86603 16C7.99731 16 8.17141 15.9277 8.26517 15.5902L8.58929 14.3954C10.1231 14.2651 11.5575 13.5827 12.6261 12.4748L13.6521 13.0588C13.7519 13.1217 13.8664 13.1577 13.9843 13.1632C14.0749 13.1651 14.1622 13.1292 14.2253 13.0641C14.3164 12.9704 14.3887 12.7963 14.2093 12.4909L13.5182 11.3149C14.0014 10.5086 14.2937 9.6024 14.3727 8.66568H14.3914C14.4952 8.66609 14.5987 8.6535 14.6994 8.62817L15.5834 8.39512C15.9263 8.30672 15.9959 8.12726 15.9959 8.00135C15.996 7.87544 15.9317 7.69598 15.5888 7.60758ZM4.71539 10.9938C4.69997 11.018 4.6764 11.036 4.64893 11.0444L4.65964 11.0364L3.23723 11.84L2.34255 12.3623L3.68192 10.0908C3.70274 10.0474 3.74216 10.0158 3.78906 10.005C3.83241 10.0086 3.87272 10.0287 3.90157 10.0613L4.67841 10.8274C4.73457 10.8631 4.75114 10.9376 4.71539 10.9938ZM4.75306 5.1142C4.74464 5.14167 4.72672 5.16524 4.70248 5.18066L4.68641 5.17799L3.90957 5.94409C3.86751 6.00496 3.7841 6.02018 3.72323 5.97815C3.70063 5.96255 3.6834 5.94039 3.67382 5.91465V5.89321L2.33982 3.64041L3.4113 4.24579L4.67298 4.96368C4.7367 4.98314 4.77255 5.05054 4.75306 5.1142ZM7.16962 3.53591L7.86073 0.988448L8.18754 2.19387L8.48755 3.30286L8.54917 3.53324C8.58 3.59555 8.55447 3.67108 8.49216 3.70191C8.46752 3.71412 8.43955 3.71789 8.41255 3.71271H7.3116C7.24332 3.72583 7.17731 3.68113 7.16419 3.61285C7.15901 3.58586 7.16277 3.55789 7.17499 3.53324L7.16962 3.53591ZM8.55184 12.4641L7.86073 15.0116L7.59287 14.0579L7.16158 12.4668C7.13076 12.4044 7.15628 12.3289 7.21859 12.2981C7.24323 12.2859 7.2712 12.2821 7.2982 12.2873H8.40719C8.47546 12.2742 8.54148 12.3189 8.5546 12.3871C8.55978 12.4141 8.55601 12.4421 8.5438 12.4668L8.55184 12.4641ZM7.88506 8.80519C7.87875 8.80519 7.87241 8.80512 7.8661 8.80497C7.42238 8.79461 7.07108 8.42651 7.08144 7.98283C7.0918 7.53911 7.45989 7.18781 7.90358 7.19817C8.33988 7.20834 8.68833 7.56492 8.68845 8.00135C8.68858 8.44516 8.32887 8.80506 7.88506 8.80519ZM11.1212 5.00888C11.1367 4.98465 11.1602 4.96672 11.1877 4.95831V4.96368L11.4261 4.82706L13.5102 3.64038L12.894 4.68775L12.1734 5.91192C12.1477 5.98126 12.0706 6.01654 12.0012 5.99077C11.9755 5.9812 11.9533 5.96396 11.9377 5.94136L11.1582 5.17526C11.1021 5.13957 11.0855 5.06504 11.1212 5.00888ZM12.7146 11.9069L11.1877 11.039C11.124 11.0196 11.0882 10.9522 11.1077 10.8885C11.1161 10.861 11.134 10.8375 11.1583 10.822L11.5788 10.4122L11.9404 10.0586C11.9693 10.0261 12.0096 10.0059 12.0529 10.0024C12.0998 10.0131 12.1393 10.0447 12.1601 10.0881L12.2619 10.2622L13.4968 12.3623L12.7146 11.9069Z" fill="#222222"/>
</g>
<defs>
<clipPath id="clip0_22_1026">
<rect width="16" height="16" fill="white"/>
</clipPath>
</defs>
</svg>
