<svg width="16" height="16" viewBox="0 0 16 16" fill="none" xmlns="http://www.w3.org/2000/svg">
<g clip-path="url(#clip0_22_826)">
<path fill-rule="evenodd" clip-rule="evenodd" d="M7.63745 4.51958L9.76433 0L10.1269 4.56793L14.3806 2.03017L11.6979 6.33228L15.5891 6.67063L11.8187 8.82168L15.1057 11.6736L10.6102 11.0211L11.2145 15.4683L8.31419 12.1088L6.28398 16L5.96976 11.9638L1.64352 14.6707L4.42296 10.2961L0.410889 10.0302L4.06043 7.90337L0.797627 4.97892L5.4864 5.704L5.05138 1.69193L7.63745 4.51958ZM6.77314 5.50229L6.96252 7.24871L4.92825 6.93413L6.25965 8.12749L4.73972 9.01328L6.69703 9.14298L5.82047 10.5225L7.10016 9.72183L7.22897 11.3763L8.04696 9.80838L9.33529 11.3007L9.0887 9.48557L10.9021 9.74881L9.57956 8.60133L11.3247 7.6057L9.47104 7.44451L10.4347 5.89918L8.99557 6.75777L8.8551 4.98748L7.98779 6.83045L6.77314 5.50229Z" fill="#F74128"/>
</g>
<defs>
<clipPath id="clip0_22_826">
<rect width="16" height="16" fill="white"/>
</clipPath>
</defs>
</svg>
