<svg width="16" height="16" viewBox="0 0 16 16" fill="none" xmlns="http://www.w3.org/2000/svg">
<g clip-path="url(#clip0_22_975)">
<path d="M8 16C12.4183 16 16 12.4183 16 8C16 3.58172 12.4183 0 8 0C3.58172 0 0 3.58172 0 8C0 12.4183 3.58172 16 8 16Z" fill="#222222"/>
<path d="M8 15.0625C11.9005 15.0625 15.0625 11.9005 15.0625 8C15.0625 4.09949 11.9005 0.9375 8 0.9375C4.09949 0.9375 0.9375 4.09949 0.9375 8C0.9375 11.9005 4.09949 15.0625 8 15.0625Z" fill="#FFE725"/>
<path d="M8.00001 9.47291C8.81347 9.47291 9.47291 8.81347 9.47291 8.00001C9.47291 7.18654 8.81347 6.5271 8.00001 6.5271C7.18654 6.5271 6.5271 7.18654 6.5271 8.00001C6.5271 8.81347 7.18654 9.47291 8.00001 9.47291Z" fill="#222222"/>
<path d="M10.9963 2.81121C10.0888 2.28599 9.05272 2.00836 8.00006 2.00836C6.9474 2.00836 5.91131 2.28599 5.00381 2.81124C4.7799 2.9408 4.70331 3.22727 4.83265 3.4513L6.08787 5.62558C6.15009 5.73336 6.25259 5.81196 6.37284 5.84408C6.49303 5.87621 6.62112 5.85917 6.72881 5.79683C7.11334 5.57402 7.55297 5.45627 8.00006 5.45627C8.44715 5.45627 8.88678 5.57402 9.27137 5.7968C9.37906 5.85917 9.50712 5.87617 9.62734 5.84405C9.74756 5.81192 9.85009 5.73333 9.91231 5.62555L11.1675 3.45127C11.2968 3.22724 11.2202 2.9408 10.9963 2.81121Z" fill="#222222"/>
<path d="M13.523 7.53125H11.0124C10.888 7.53125 10.7686 7.58075 10.6807 7.66878C10.5928 7.75681 10.5435 7.87625 10.5437 8.00069C10.5443 8.44516 10.4265 8.88475 10.203 9.27194C9.97943 9.65912 9.65765 9.981 9.27243 10.2027C9.16459 10.2648 9.08581 10.3672 9.05353 10.4873C9.02125 10.6075 9.03806 10.7356 9.10031 10.8434L10.3558 13.0175C10.4851 13.2415 10.7715 13.3184 10.9957 13.1893C11.9043 12.6659 12.6627 11.9074 13.189 10.9958C13.7153 10.0841 13.9929 9.04803 13.9917 7.99947C13.9914 7.74081 13.7817 7.53125 13.523 7.53125Z" fill="#222222"/>
<path d="M6.72759 10.2027C6.34237 9.981 6.02059 9.65912 5.79705 9.27194C5.57352 8.88475 5.45571 8.44513 5.45637 8.00069C5.45652 7.87625 5.40724 7.75681 5.31934 7.66878C5.2314 7.58072 5.11205 7.53122 4.98762 7.53125H2.47705C2.21837 7.53125 2.00859 7.74081 2.0083 7.9995C2.00715 9.04806 2.28471 10.0842 2.81102 10.9958C3.3373 11.9075 4.09577 12.6659 5.00437 13.1893C5.22852 13.3184 5.5149 13.2416 5.64427 13.0175L6.89974 10.8434C6.96196 10.7357 6.97877 10.6076 6.94652 10.4874C6.91421 10.3672 6.83543 10.2648 6.72759 10.2027Z" fill="#222222"/>
</g>
<defs>
<clipPath id="clip0_22_975">
<rect width="16" height="16" fill="white"/>
</clipPath>
</defs>
</svg>
