<svg width="28" height="28" viewBox="0 0 28 28" fill="none" xmlns="http://www.w3.org/2000/svg">
<path d="M23.8542 0C25.5042 0 26.8333 1.39535 26.8333 3.06977V21.7209C26.8333 21.814 26.8333 21.8605 26.7875 21.9535L23.4417 27.5349C23.2583 27.814 22.9833 28 22.6625 28C22.3417 28 22.0667 27.814 21.8833 27.5349L18.5375 21.9535C18.4917 21.907 18.4917 21.814 18.4917 21.7209V3.06977C18.4917 1.39535 19.8667 0 21.5167 0H23.8542ZM9.64583 0.0930233C10.8833 0.0930233 11.9375 1.11628 11.9375 2.4186V25.6279C11.9375 26.9302 10.9292 27.9535 9.64583 27.9535H3.45833C2.175 27.9535 1.16667 26.9302 1.16667 25.6279V2.4186C1.16667 1.11628 2.175 0.0930233 3.45833 0.0930233H9.64583ZM25.9167 5.95349H19.4083V21.5814L22.6625 27.0698L25.9167 21.5814V5.95349ZM9.64583 1.02326H3.45833C2.67917 1.02326 2.08333 1.62791 2.08333 2.4186V4.04651H6.025C6.3 4.04651 6.48333 4.23256 6.48333 4.51163C6.48333 4.7907 6.3 4.97674 6.025 4.97674H2.08333V8.60465H3.64167C3.91667 8.60465 4.1 8.7907 4.1 9.06977C4.1 9.34884 3.91667 9.53488 3.64167 9.53488H2.08333V13.1628H6.025C6.3 13.1628 6.48333 13.3488 6.48333 13.6279C6.48333 13.907 6.3 14.093 6.025 14.093H2.08333V17.7209H3.64167C3.91667 17.7209 4.1 17.907 4.1 18.186C4.1 18.4651 3.91667 18.6512 3.64167 18.6512H2.08333V22.2791H6.025C6.3 22.2791 6.48333 22.4651 6.48333 22.7442C6.48333 23.0233 6.3 23.2093 6.025 23.2093H2.08333V25.5814C2.08333 26.3721 2.67917 26.9767 3.45833 26.9767H9.64583C10.425 26.9767 11.0208 26.3721 11.0208 25.5814V2.4186C11.0208 1.62791 10.425 1.02326 9.64583 1.02326ZM23.8542 0.930233H21.5167C20.3708 0.930233 19.4083 1.90698 19.4083 3.06977V5.02326H25.9167V3.06977C25.9167 1.90698 25 0.930233 23.8542 0.930233Z" fill="white"/>
</svg>
