<svg width="16" height="16" fill="none" xmlns="http://www.w3.org/2000/svg"><g clip-path="url(#a)"><path d="m15.589 7.608-.906-.239a.825.825 0 0 0-.335-.019 6.19 6.19 0 0 0-.91-2.526l.774-1.312c.18-.303.107-.48.016-.573-.091-.094-.268-.17-.573 0l-1.2.683a6.36 6.36 0 0 0-3.79-1.739L8.27.413C8.174.073 8.003 0 7.866 0c-.131 0-.305.072-.4.413L7.06 1.918a6.383 6.383 0 0 0-3.566 1.765l-1.296-.74c-.305-.173-.48-.098-.573 0-.094.1-.164.269.016.574l.849 1.43a6.083 6.083 0 0 0-.83 2.411.825.825 0 0 0-.335.022l-.906.238c-.345.078-.415.252-.415.383 0 .132.072.306.413.397l.889.23c.102.028.207.042.313.043h.019c.077.885.344 1.743.782 2.515l-.78 1.308c-.179.305-.106.48-.015.573.063.065.15.1.24.099a.683.683 0 0 0 .333-.105l1.128-.643a6.352 6.352 0 0 0 3.809 1.95l.332 1.222c.091.34.268.41.399.41s.305-.072.4-.41l.323-1.195a6.356 6.356 0 0 0 4.037-1.92l1.026.584c.1.063.214.099.332.104a.326.326 0 0 0 .241-.099c.091-.094.164-.268-.016-.573l-.69-1.176a6.16 6.16 0 0 0 .854-2.65h.018a1.18 1.18 0 0 0 .308-.037l.884-.233c.343-.088.413-.268.413-.394s-.064-.305-.407-.393ZM4.715 10.994a.12.12 0 0 1-.066.05l.01-.008-1.422.804-.894.522 1.339-2.271a.158.158 0 0 1 .107-.086.169.169 0 0 1 .113.056l.776.766a.12.12 0 0 1 .037.167Zm.038-5.88a.12.12 0 0 1-.05.067l-.017-.003-.776.766a.134.134 0 0 1-.236-.03v-.02L2.34 3.64l1.071.606 1.262.718c.064.02.1.087.08.15ZM7.17 3.536 7.86.988l.328 1.206.3 1.109.061.23a.126.126 0 0 1-.136.18H7.312a.126.126 0 0 1-.137-.18l-.005.003Zm1.382 8.928-.691 2.548-.268-.954-.431-1.591a.126.126 0 0 1 .136-.18h1.11a.126.126 0 0 1 .136.18l.008-.003Zm-.667-3.659h-.019a.804.804 0 1 1 .02 0Zm3.236-3.796a.12.12 0 0 1 .067-.05v.005l.238-.137L13.51 3.64l-.616 1.048-.72 1.224a.134.134 0 0 1-.236.03l-.78-.767a.12.12 0 0 1-.037-.166Zm1.594 6.898-1.527-.868a.12.12 0 0 1-.03-.217l.42-.41.362-.353a.169.169 0 0 1 .113-.057.16.16 0 0 1 .107.086l.102.174 1.235 2.1-.782-.455Z" fill="#222"/></g><defs><clipPath id="a"><path fill="#fff" d="M0 0h16v16H0z"/></clipPath></defs></svg>