<svg width="16" height="16" fill="none" xmlns="http://www.w3.org/2000/svg"><g clip-path="url(#a)"><path fill-rule="evenodd" clip-rule="evenodd" d="M7.637 4.52 9.764 0l.363 4.568L14.38 2.03l-2.683 4.302 3.891.339-3.77 2.15 3.287 2.853-4.496-.653.604 4.447-2.9-3.36L6.284 16l-.314-4.036-4.326 2.707 2.779-4.375-4.012-.266 3.65-2.127L.797 4.98l4.688.725-.435-4.012L7.637 4.52Zm-.864.982.19 1.747-2.035-.315L6.26 8.127l-1.52.886 1.957.13-.877 1.38 1.28-.801.129 1.654.818-1.568 1.288 1.493-.246-1.815 1.813.263L9.58 8.6l1.745-.995-1.854-.161.964-1.546-1.44.859-.14-1.77-.867 1.842-1.215-1.328Z" fill="#F74128"/></g><defs><clipPath id="a"><path fill="#fff" d="M0 0h16v16H0z"/></clipPath></defs></svg>