<svg width="16" height="16" fill="none" xmlns="http://www.w3.org/2000/svg"><g clip-path="url(#a)"><path d="M8 16A8 8 0 1 0 8 0a8 8 0 0 0 0 16Z" fill="#222"/><path d="M8 15.063A7.063 7.063 0 1 0 8 .937a7.063 7.063 0 0 0 0 14.126Z" fill="#FFE725"/><path d="M8 9.473a1.473 1.473 0 1 0 0-2.946 1.473 1.473 0 0 0 0 2.946Zm2.996-6.662a5.988 5.988 0 0 0-5.992 0 .469.469 0 0 0-.171.64l1.255 2.175a.469.469 0 0 0 .64.17 2.538 2.538 0 0 1 2.543 0 .469.469 0 0 0 .641-.17l1.255-2.175a.469.469 0 0 0-.17-.64Zm2.527 4.72h-2.51a.469.469 0 0 0-.47.47 2.54 2.54 0 0 1-1.27 2.202.469.469 0 0 0-.173.64l1.256 2.175c.13.223.415.3.64.171A5.99 5.99 0 0 0 13.992 8a.469.469 0 0 0-.469-.468Zm-6.795 2.672A2.54 2.54 0 0 1 5.456 8a.469.469 0 0 0-.468-.47H2.477a.469.469 0 0 0-.469.47 5.988 5.988 0 0 0 2.996 5.19.47.47 0 0 0 .64-.172L6.9 10.843a.469.469 0 0 0-.172-.64Z" fill="#222"/></g><defs><clipPath id="a"><path fill="#fff" d="M0 0h16v16H0z"/></clipPath></defs></svg>